<mxfile host="app.diagrams.net" modified="2023-07-31T11:31:26.401Z" agent="Mozilla/5.0 (Macintosh; Intel Mac OS X 10_15_7) AppleWebKit/605.1.15 (KHTML, like Gecko) Version/16.6 Safari/605.1.15" etag="EOnr5Od0HGp-P8ejbZNk" version="21.6.6" type="device">
  <diagram name="Page-1" id="74e2e168-ea6b-b213-b513-2b3c1d86103e">
    <mxGraphModel dx="1392" dy="873" grid="1" gridSize="8" guides="1" tooltips="1" connect="1" arrows="1" fold="1" page="1" pageScale="1" pageWidth="1169" pageHeight="827" background="#CCCCCC" math="0" shadow="0">
      <root>
        <mxCell id="0" />
        <mxCell id="1" parent="0" />
        <mxCell id="8XUuZaBsii5igsLhCRMP-20" style="edgeStyle=orthogonalEdgeStyle;rounded=0;orthogonalLoop=1;jettySize=auto;html=1;exitX=1;exitY=1;exitDx=0;exitDy=0;entryX=0.5;entryY=0;entryDx=0;entryDy=0;" edge="1" parent="1" source="8XUuZaBsii5igsLhCRMP-1" target="8XUuZaBsii5igsLhCRMP-2">
          <mxGeometry relative="1" as="geometry" />
        </mxCell>
        <mxCell id="8XUuZaBsii5igsLhCRMP-24" style="edgeStyle=orthogonalEdgeStyle;rounded=0;orthogonalLoop=1;jettySize=auto;html=1;exitX=0;exitY=0;exitDx=0;exitDy=0;" edge="1" parent="1" source="8XUuZaBsii5igsLhCRMP-1" target="8XUuZaBsii5igsLhCRMP-23">
          <mxGeometry relative="1" as="geometry" />
        </mxCell>
        <mxCell id="8XUuZaBsii5igsLhCRMP-1" value="Design" style="ellipse;whiteSpace=wrap;html=1;" vertex="1" parent="1">
          <mxGeometry x="864" y="376" width="120" height="80" as="geometry" />
        </mxCell>
        <mxCell id="8XUuZaBsii5igsLhCRMP-21" style="edgeStyle=orthogonalEdgeStyle;rounded=0;orthogonalLoop=1;jettySize=auto;html=1;exitX=0;exitY=0.5;exitDx=0;exitDy=0;entryX=0.5;entryY=0;entryDx=0;entryDy=0;" edge="1" parent="1" source="8XUuZaBsii5igsLhCRMP-2" target="8XUuZaBsii5igsLhCRMP-3">
          <mxGeometry relative="1" as="geometry" />
        </mxCell>
        <mxCell id="8XUuZaBsii5igsLhCRMP-2" value="Code - Meet requirements" style="ellipse;whiteSpace=wrap;html=1;" vertex="1" parent="1">
          <mxGeometry x="1016" y="520" width="120" height="80" as="geometry" />
        </mxCell>
        <mxCell id="8XUuZaBsii5igsLhCRMP-3" value="Apply Design" style="ellipse;whiteSpace=wrap;html=1;" vertex="1" parent="1">
          <mxGeometry x="872" y="632" width="120" height="80" as="geometry" />
        </mxCell>
        <mxCell id="8XUuZaBsii5igsLhCRMP-6" style="edgeStyle=orthogonalEdgeStyle;rounded=0;orthogonalLoop=1;jettySize=auto;html=1;exitX=0.625;exitY=0;exitDx=0;exitDy=0;entryX=0.164;entryY=1.017;entryDx=0;entryDy=0;entryPerimeter=0;" edge="1" parent="1" source="8XUuZaBsii5igsLhCRMP-4" target="8XUuZaBsii5igsLhCRMP-5">
          <mxGeometry relative="1" as="geometry" />
        </mxCell>
        <mxCell id="8XUuZaBsii5igsLhCRMP-4" value="Roles" style="shape=hexagon;perimeter=hexagonPerimeter2;whiteSpace=wrap;html=1;fixedSize=1;" vertex="1" parent="1">
          <mxGeometry x="80" y="176" width="120" height="80" as="geometry" />
        </mxCell>
        <mxCell id="8XUuZaBsii5igsLhCRMP-9" style="edgeStyle=orthogonalEdgeStyle;rounded=0;orthogonalLoop=1;jettySize=auto;html=1;exitX=0.25;exitY=0;exitDx=0;exitDy=0;entryX=1;entryY=0.613;entryDx=0;entryDy=0;entryPerimeter=0;" edge="1" parent="1" source="8XUuZaBsii5igsLhCRMP-5" target="8XUuZaBsii5igsLhCRMP-7">
          <mxGeometry relative="1" as="geometry" />
        </mxCell>
        <mxCell id="8XUuZaBsii5igsLhCRMP-10" style="edgeStyle=orthogonalEdgeStyle;rounded=0;orthogonalLoop=1;jettySize=auto;html=1;exitX=0.75;exitY=0;exitDx=0;exitDy=0;entryX=0;entryY=0.5;entryDx=0;entryDy=0;" edge="1" parent="1" source="8XUuZaBsii5igsLhCRMP-5" target="8XUuZaBsii5igsLhCRMP-8">
          <mxGeometry relative="1" as="geometry" />
        </mxCell>
        <mxCell id="8XUuZaBsii5igsLhCRMP-5" value="Project Managers" style="shape=parallelogram;perimeter=parallelogramPerimeter;whiteSpace=wrap;html=1;fixedSize=1;" vertex="1" parent="1">
          <mxGeometry x="160" y="72" width="152" height="60" as="geometry" />
        </mxCell>
        <mxCell id="8XUuZaBsii5igsLhCRMP-7" value="Sam - Backend&amp;nbsp;" style="whiteSpace=wrap;html=1;aspect=fixed;" vertex="1" parent="1">
          <mxGeometry x="32" y="24" width="80" height="80" as="geometry" />
        </mxCell>
        <mxCell id="8XUuZaBsii5igsLhCRMP-8" value="Idnan - Backend" style="whiteSpace=wrap;html=1;aspect=fixed;" vertex="1" parent="1">
          <mxGeometry x="336" y="24" width="80" height="80" as="geometry" />
        </mxCell>
        <mxCell id="8XUuZaBsii5igsLhCRMP-11" value="Aaron - Front end" style="whiteSpace=wrap;html=1;aspect=fixed;" vertex="1" parent="1">
          <mxGeometry x="40" y="328" width="80" height="80" as="geometry" />
        </mxCell>
        <mxCell id="8XUuZaBsii5igsLhCRMP-12" value="Chloe - Front end design aspects and styling" style="whiteSpace=wrap;html=1;aspect=fixed;" vertex="1" parent="1">
          <mxGeometry x="256" y="272" width="80" height="80" as="geometry" />
        </mxCell>
        <mxCell id="8XUuZaBsii5igsLhCRMP-13" value="Elliot - Backend&lt;br&gt;" style="whiteSpace=wrap;html=1;aspect=fixed;" vertex="1" parent="1">
          <mxGeometry x="72" y="488" width="80" height="80" as="geometry" />
        </mxCell>
        <mxCell id="8XUuZaBsii5igsLhCRMP-14" value="Nathan - Back-end side of front end - functionality getting the site to render" style="whiteSpace=wrap;html=1;aspect=fixed;" vertex="1" parent="1">
          <mxGeometry x="272" y="440" width="112" height="112" as="geometry" />
        </mxCell>
        <mxCell id="8XUuZaBsii5igsLhCRMP-19" style="edgeStyle=orthogonalEdgeStyle;rounded=0;orthogonalLoop=1;jettySize=auto;html=1;exitX=0;exitY=1;exitDx=0;exitDy=0;entryX=0.6;entryY=-0.037;entryDx=0;entryDy=0;entryPerimeter=0;" edge="1" parent="1" source="8XUuZaBsii5igsLhCRMP-15" target="8XUuZaBsii5igsLhCRMP-1">
          <mxGeometry relative="1" as="geometry" />
        </mxCell>
        <mxCell id="8XUuZaBsii5igsLhCRMP-15" value="Assign Roles" style="ellipse;whiteSpace=wrap;html=1;" vertex="1" parent="1">
          <mxGeometry x="1016" y="256" width="120" height="80" as="geometry" />
        </mxCell>
        <mxCell id="8XUuZaBsii5igsLhCRMP-16" value="Timeline" style="rounded=1;whiteSpace=wrap;html=1;" vertex="1" parent="1">
          <mxGeometry x="864" y="32" width="248" height="60" as="geometry" />
        </mxCell>
        <mxCell id="8XUuZaBsii5igsLhCRMP-18" style="edgeStyle=orthogonalEdgeStyle;rounded=0;orthogonalLoop=1;jettySize=auto;html=1;exitX=1;exitY=1;exitDx=0;exitDy=0;entryX=0.167;entryY=0.075;entryDx=0;entryDy=0;entryPerimeter=0;" edge="1" parent="1" source="8XUuZaBsii5igsLhCRMP-17" target="8XUuZaBsii5igsLhCRMP-15">
          <mxGeometry relative="1" as="geometry" />
        </mxCell>
        <mxCell id="8XUuZaBsii5igsLhCRMP-17" value="Decide Theme" style="ellipse;whiteSpace=wrap;html=1;" vertex="1" parent="1">
          <mxGeometry x="864" y="132" width="120" height="80" as="geometry" />
        </mxCell>
        <mxCell id="8XUuZaBsii5igsLhCRMP-23" value="Flow charts/tick off plan" style="ellipse;whiteSpace=wrap;html=1;aspect=fixed;" vertex="1" parent="1">
          <mxGeometry x="760" y="312" width="80" height="80" as="geometry" />
        </mxCell>
        <mxCell id="8XUuZaBsii5igsLhCRMP-25" value="Presentation for Tuesday 1:30" style="ellipse;whiteSpace=wrap;html=1;aspect=fixed;" vertex="1" parent="1">
          <mxGeometry x="720" y="424" width="80" height="80" as="geometry" />
        </mxCell>
        <mxCell id="8XUuZaBsii5igsLhCRMP-26" value="Cookie Club&lt;br&gt;-Enthusiats and recipes" style="ellipse;whiteSpace=wrap;html=1;aspect=fixed;" vertex="1" parent="1">
          <mxGeometry x="720" y="88" width="120" height="120" as="geometry" />
        </mxCell>
        <mxCell id="8XUuZaBsii5igsLhCRMP-27" value="&lt;font style=&quot;font-size: 20px;&quot;&gt;&lt;b&gt;9:45&lt;/b&gt; - Morning Stand up - make sure everyones got up to date git pulls&lt;br&gt;&lt;b&gt;1:35&lt;/b&gt; - Stand up after lunch&lt;br&gt;&lt;b&gt;4:00&lt;/b&gt; - Stand up to discuss issues/difficulties&lt;br&gt;&lt;b&gt;5:10&lt;/b&gt; - Github focused stand up to finish the day and everyones pushed the days work and has the most up to date files&lt;/font&gt;" style="shape=card;whiteSpace=wrap;html=1;" vertex="1" parent="1">
          <mxGeometry x="408" y="160" width="272" height="332" as="geometry" />
        </mxCell>
      </root>
    </mxGraphModel>
  </diagram>
</mxfile>
